# xmcd
#
# Track frame offsets:
#	150
#	19908
#	36424
#	49625
#	67451
#	83952
#	125141
#	159576
#	175021
#	197617
#	219966
#	256790
#	287808
#
# Disc length: 4176 seconds
#
# Revision: 1
# Processed by: cddbd v1.5.2PL0 Copyright (c) Steve Scherf et al.
# Submitted via: CDmax 2.0
#
DISCID=bf104e0d
DTITLE=shri - Live At Lyzzard's
DYEAR=1997
DGENRE=Blues
TTITLE0=Woman With My Class
TTITLE1=Time To Face
TTITLE2=Action
TTITLE3=Wearin' Thin
TTITLE4=Good
TTITLE5=Left My Baby Standing
TTITLE6=Blind Devotion
TTITLE7=Course Of Action
TTITLE8=Driftin'
TTITLE9=Lapidary Blues
TTITLE10=Off Limits
TTITLE11=My Bleeding Heart
TTITLE12=G-Thang
EXTD=
EXTT0=
EXTT1=
EXTT2=
EXTT3=
EXTT4=
EXTT5=
EXTT6=
EXTT7=
EXTT8=
EXTT9=
EXTT10=
EXTT11=
EXTT12=
PLAYORDER=
